<svg width="400" height="400" viewBox="-2 -2 44 44" fill="none" xmlns="http://www.w3.org/2000/svg">
  <g transform-origin="20 20">
    <!-- Dark green shapes -->
    <path d="M17.343 2.65705L20 0L40 20L20 40L17.3429 37.3429L34.6859 20L17.343 2.65705Z" fill="#16A34A">
      <animate attributeName="fill" values="#a1dab6;#16A34A;#0d612c;#16A34A;#a1dab6" dur="6s" repeatCount="indefinite"/>
    </path>
    <path d="M13.8744 6.12564L16.5314 3.46859L33.0628 20L16.5314 36.5314L13.8744 33.8744L27.7487 20L13.8744 6.12564Z" fill="#16A34A">
      <animate attributeName="fill" values="#a1dab6;#16A34A;#0d612c;#16A34A;#a1dab6" dur="6s" begin="1.2s" repeatCount="indefinite"/>
    </path>

    <!-- Light green shapes -->
    <path d="M0 20L13.0628 6.93718L26.1256 20L13.0628 33.0628L10.4058 30.4058L20.8115 20L13.0628 12.2513L2.65705 22.657L0 20Z" fill="#6CC58D">
      <animate attributeName="fill" values="#a1dab6;#16A34A;#0d612c;#16A34A;#a1dab6" dur="6s" begin="2.4s" repeatCount="indefinite"/>
    </path>
    <path d="M13.0628 13.8744L10.4058 16.5314L13.8744 20L6.93718 26.9372L9.59422 29.5942L19.1885 20L13.0628 13.8744Z" fill="#6CC58D">
      <animate attributeName="fill" values="#a1dab6;#16A34A;#0d612c;#16A34A;#a1dab6" dur="6s" begin="3.6s" repeatCount="indefinite"/>
    </path>
    <path d="M6.12564 26.1256L3.46859 23.4686L9.56643 17.3708L12.2235 20.0278L6.12564 26.1256Z" fill="#6CC58D">
      <animate attributeName="fill" values="#a1dab6;#16A34A;#0d612c;#16A34A;#a1dab6" dur="6s" begin="4.8s" repeatCount="indefinite"/>
    </path>

    <!-- Group pulse animation -->
    <animateTransform attributeName="transform"
                      type="scale"
                      values="1;1.08;1"
                      dur="1.5s"
                      repeatCount="indefinite"
                      calcMode="spline"
                      keySplines="0.4 0 0.2 1;0.4 0 0.2 1"/>
  </g>
</svg>